#define _width 8
#define _height 8
static char _bits[] = {
 0x3c,0x42,0x99,0xb5,0xbd,0x99,0x42,0x3c };
