#define _width 128
#define _height 48
static char _bits[] = {
 0x00,0x00,0x00,0x1e,0xcc,0x03,0x1f,0xee,0x01,0x00,0x00,0x00,0x00,0x00,0x00,
 0x00,0x00,0x00,0x80,0x7f,0xfc,0x87,0x3f,0xfe,0x03,0x00,0x00,0x00,0x00,0x00,
 0x00,0x00,0x00,0x00,0xc0,0xff,0xfc,0xcf,0x7b,0xfe,0x07,0x00,0x00,0x00,0x00,
 0x00,0x00,0x00,0x00,0x00,0xc0,0xf3,0x3c,0xef,0x71,0x9e,0x07,0x00,0x00,0x00,
 0x00,0x00,0x00,0x00,0x00,0x00,0xc0,0xe1,0x1c,0xee,0x7f,0x0e,0x07,0x00,0x00,
 0x00,0x00,0x00,0x00,0x00,0x00,0x00,0xc0,0xe1,0x1c,0xee,0x7f,0x0e,0x07,0x00,
 0x00,0x00,0x00,0x00,0x00,0x00,0x00,0x00,0xc0,0xf3,0x3c,0xcf,0x01,0x0e,0x07,
 0x00,0x00,0x00,0x00,0x00,0x00,0x00,0x00,0x00,0xc0,0xff,0xfc,0xc7,0x73,0x0e,
 0x07,0x00,0x00,0x00,0x00,0x00,0x00,0x00,0x00,0x00,0x80,0x7f,0xfc,0x87,0x7f,
 0x0e,0x07,0x00,0x00,0x00,0x00,0x00,0x00,0x00,0x00,0x00,0x00,0x1e,0xdc,0x01,
 0x1e,0x0e,0x03,0x00,0x00,0x00,0x00,0x00,0x00,0x00,0xe0,0x3f,0x00,0x00,0x1c,
 0x00,0x00,0x00,0x00,0x00,0x00,0x00,0x00,0x00,0x00,0x00,0xe0,0x7f,0x00,0x00,
 0x1c,0x00,0x00,0x00,0x00,0x00,0x00,0x00,0x00,0x00,0x00,0x00,0xe0,0xff,0x00,
 0x00,0x1c,0x00,0x00,0x00,0x00,0x00,0x00,0x00,0x00,0x00,0x00,0x00,0xe0,0xf1,
 0x01,0x00,0x1c,0x00,0x00,0x00,0x00,0x00,0x00,0x00,0x00,0x00,0x00,0x00,0xe0,
 0xe1,0x01,0x00,0x1c,0x00,0x00,0x00,0x00,0x00,0x00,0x00,0x00,0x00,0x00,0x00,
 0xe0,0xe1,0x79,0x78,0x3c,0x1e,0x1f,0xce,0x03,0x00,0x00,0x00,0x00,0x00,0x00,
 0x00,0xe0,0xf1,0xff,0x79,0x3c,0x9e,0x3f,0xee,0x03,0x00,0x00,0x00,0x00,0x00,
 0x00,0x00,0xe0,0xff,0xff,0x73,0x3c,0xce,0x7b,0x7e,0x03,0x00,0x00,0x00,0x00,
 0x00,0x00,0x00,0xe0,0x7f,0xcf,0xf3,0x7e,0xef,0x71,0x3e,0x00,0x00,0x00,0x00,
 0x00,0x00,0x00,0x00,0xe0,0x3f,0x87,0xf3,0x7e,0xe7,0x7f,0x1e,0x00,0x00,0x00,
 0x00,0x00,0x00,0x00,0x00,0xe0,0x01,0x87,0xe3,0xff,0xe7,0x7f,0x0e,0x00,0x00,
 0x00,0x00,0x00,0x00,0xe0,0x00,0xe0,0x01,0xcf,0xe3,0xff,0xc7,0x01,0x0e,0xfc,
 0x00,0x00,0xc0,0x00,0x00,0xe0,0x00,0xe0,0x01,0xff,0xc3,0xe7,0xc3,0x73,0x0e,
 0xff,0x01,0x00,0xe0,0x01,0x00,0xe0,0x00,0xe0,0x01,0xfe,0xc1,0xe7,0x83,0x7f,
 0x8e,0xff,0x01,0x00,0xe0,0x71,0x00,0xe0,0x00,0xe0,0x01,0x78,0x80,0xc3,0x01,
 0x1e,0x8e,0x8f,0x01,0x00,0xc0,0x70,0x00,0xe0,0x00,0x00,0x00,0x00,0x00,0x00,
 0x00,0x00,0x80,0x07,0x00,0x00,0x00,0x70,0x00,0xe0,0x00,0x00,0x00,0x00,0x00,
 0x00,0x00,0x00,0x80,0x0f,0x3c,0x1c,0xee,0xfd,0xc3,0xe3,0x1e,0x00,0x00,0x00,
 0x00,0x00,0x00,0x00,0x80,0xff,0x3c,0x1e,0xef,0xfd,0xf3,0xe7,0x3f,0x00,0x00,
 0x00,0x00,0x00,0x00,0x00,0x00,0xff,0x79,0x3e,0xe7,0xfd,0xfb,0xe7,0x3f,0x00,
 0x00,0x00,0x00,0x00,0x00,0x00,0x00,0xfc,0x7b,0xbf,0xe7,0x71,0x78,0xe4,0x3c, // tototiti
 0x00,0x00,0x00,0x00,0x00,0x00,0x00,0x00,0xe0,0x73,0xbf,0xe7,0x71,0x38,0xe0,
 0x38,0x00,0x00,0x00,0x00,0x00,0x00,0x00,0x00,0xc0,0xf3,0xff,0xe3,0x71,0x38,
 0xe0,0x38,0x00,0x00,0x00,0x00,0x00,0x00,0x00,0x80,0xe1,0xf3,0xf3,0xe3,0x71,
 0x78,0xe4,0x38,0x00,0x00,0x00,0x00,0x00,0x00,0x00,0x80,0xff,0xe1,0xf3,0xe1,
 0xf1,0xfb,0xe7,0x38,0x00,0x00,0x00,0x00,0x00,0x00,0x00,0x80,0xff,0xe0,0xf3,
 0xe1,0xf1,0xf3,0xe7,0x38,0x60,0x00,0x00,0x00,0x00,0x00,0x00,0x00,0x3f,0xc0,
 0xe1,0xe0,0xe1,0xc3,0xe3,0x38,0x60,0x00,0x80,0x67,0xdc,0x9f,0x0f,0x03,0x00,
 0x00,0x00,0x00,0x00,0x00,0x00,0x00,0x60,0x00,0xc0,0x6f,0xce,0xdf,0x9f,0x03,
 0x00,0x00,0x00,0x00,0x00,0x00,0x00,0x00,0xe0,0x3b,0xe7,0x60,0x07,0xdc,0xd8,
 0x03,0x00,0x00,0x00,0x00,0x00,0x00,0x00,0x00,0xe0,0x37,0xe3,0xe1,0x03,0xce,
 0x1d,0x03,0x00,0x00,0x00,0x00,0x00,0x00,0x00,0x00,0x60,0x37,0xc3,0xe7,0x03,
 0x87,0x0f,0x03,0x00,0x00,0x00,0x00,0x00,0x00,0x00,0x00,0x60,0x36,0x03,0x6f,
 0x87,0xc3,0x1d,0x03,0x00,0x00,0x00,0x00,0x00,0x00,0x00,0x00,0x60,0xf7,0x23,
 0x6e,0xce,0xc1,0x18,0x03,0x00,0x00,0x00,0x00,0x00,0x00,0x00,0x00,0xe0,0xe7,
 0xe1,0x67,0xce,0xdf,0xdf,0x0f,0x00,0x00,0x00,0x00,0x00,0x00,0x00,0x00,0xe0,
 0xc3,0xc0,0x63,0xdc,0x9f,0xcf,0x0f,0x00,0x00,0x00,0x00,0x00,0x00,0x00,0x00,
 0x00,0xc0,0x00,0x00,0x00,0x00,0x00,0x00,0x00,0x00,0x00,0x00,0x00,0x00,0x00,
 0x00,0x00,0xe0,0x00,0x00,0x00,0x00,0x00,0x00,0x00,0x00,0x00,0x00,0x00,0x00,
 0x00,0x00,0x00,0x70,0x00,0x00,0x00,0x00,0x00,0x00,0x00,0x00,0x00,0x00,0x00,
 0x00,0x00,0x00 };
