#define _width 16
#define _height 8
static char _bits[] = {
 0xd5,0xff,0xd5,0x57,0x55,0x57,0x75,0xff,0x75,0xff,0x55,0x75,0x57,0x75,0x57,
 0xff };
