#define _width 18
#define _height 6
static char _bits[] = {
 0x00,0x00,0x00,0xaf,0xea,0x03,0x0f,0xc0,0x03,0x5f,0xd5,0x03,0x0f,0xc0,0x03,
 0x00,0x00,0x00 };
